<svg width="27" height="33" viewBox="0 0 27 33" fill="none" xmlns="http://www.w3.org/2000/svg">
<g clip-path="url(#clip0_2001_800)">
<path d="M8.42924 22.5468C9.13945 22.5468 9.84966 22.5468 10.5599 22.5468H11.4974C11.4974 22.5302 11.4974 22.515 11.4974 22.4991C11.4937 22.0005 11.1456 21.633 10.6702 21.6239C10.1276 21.614 9.57467 21.6156 9.04033 21.6171C8.85328 21.6171 8.66622 21.6178 8.47917 21.6186H8.0909C7.97688 21.6186 7.86136 21.6186 7.74511 21.6186C7.41199 21.6186 7.07365 21.6201 6.73978 21.6262C6.3843 21.633 6.04224 21.9262 5.97889 22.2801C5.95206 22.4279 5.95281 22.5885 5.95355 22.7446V22.8363V22.925C5.95206 24.0601 5.95057 25.2331 5.95579 26.3871C5.95653 26.5834 6.02733 26.7576 6.15924 26.891C6.2986 27.0312 6.49832 27.1183 6.71966 27.1396V24.1995C6.7204 23.8721 6.8158 23.5683 7.00285 23.2955C7.34268 22.7992 7.82261 22.5476 8.42775 22.5476H8.42924V22.5468Z" fill="white"/>
<path d="M13.0313 23.9631C12.9121 23.5759 12.5991 23.3622 12.149 23.3607C11.7182 23.3599 11.2875 23.3599 10.8567 23.3607H10.3H9.8432C9.69117 23.3607 9.5384 23.3607 9.38637 23.3607C9.08231 23.3607 8.77751 23.3607 8.47345 23.3622C8.387 23.3622 8.28789 23.3645 8.1992 23.3849C7.78485 23.4812 7.52625 23.8237 7.52625 24.2783C7.52476 25.5203 7.52551 26.7622 7.52625 28.0049C7.52625 28.5641 7.89589 28.94 8.44588 28.9407C9.68223 28.9415 10.9178 28.9423 12.1542 28.9392C12.2578 28.9392 12.3517 28.9279 12.4336 28.9059C12.8368 28.7983 13.0783 28.4634 13.079 28.0102C13.0813 26.6501 13.0805 25.4316 13.0775 24.2844C13.0775 24.1707 13.0611 24.0601 13.0321 23.9638L13.0313 23.9631Z" fill="white"/>
<path d="M8.85527 20.7889C9.14517 20.7889 9.43507 20.7889 9.72497 20.7889H9.75105C9.74434 20.7093 9.73913 20.6403 9.72422 20.5752C9.62809 20.1667 9.29869 19.9114 8.86347 19.9091C8.14283 19.9053 7.48925 19.9038 6.88337 19.9038C6.23725 19.9038 5.64478 19.9061 5.08213 19.9099C4.54928 19.9137 4.20349 20.2774 4.20051 20.8358C4.20051 20.9556 4.20051 21.0745 4.20051 21.1943V21.3602C4.20051 21.6785 4.20051 21.996 4.20126 22.3142C4.202 23.0477 4.20349 23.8055 4.19828 24.5518C4.19604 24.8368 4.30484 25.0876 4.50308 25.2566C4.68119 25.4081 4.91818 25.4831 5.15218 25.4649V24.6966C5.15069 23.9684 5.15069 23.2159 5.15591 22.4749C5.1574 22.3013 5.18646 22.1195 5.24086 21.9497C5.46071 21.2609 6.09193 20.7957 6.81108 20.7926C7.49223 20.7896 8.18456 20.7904 8.85453 20.7904L8.85527 20.7889Z" fill="white"/>
<path d="M26.6952 6.98873C24.5049 4.76397 22.3154 2.53846 20.1274 0.311435C19.9195 0.0992652 19.681 0 19.3814 0C15.495 0.00530425 11.6093 0.00075775 7.72291 0.0045465C6.35689 0.006062 5.24275 1.13966 5.24201 2.53164C5.24052 7.06677 5.24052 11.6027 5.24052 16.1378C2.15896 17.4798 0 20.5911 0 24.2154C0 29.0665 3.86779 33 8.63955 33C11.657 33 14.3123 31.4269 15.8572 29.0438H24.8768C24.9104 29.0279 24.9417 29.0051 24.9767 28.9968C26.2384 28.693 26.9963 27.7253 26.9963 26.4098C26.9963 20.1993 26.9955 13.9888 27 7.7783C27 7.46459 26.9128 7.20923 26.6959 6.98948L26.6952 6.98873ZM20.304 3.04161C21.53 4.28735 22.7708 5.54824 24.0116 6.80914C23.4862 6.80914 22.9146 6.80914 22.343 6.80914C21.9532 6.80914 21.5635 6.81596 21.1745 6.80687C20.6938 6.7955 20.3189 6.46436 20.31 5.98925C20.2906 4.9913 20.304 3.99334 20.304 3.04161ZM13.889 28.0519C13.8883 29.0067 13.149 29.7553 12.207 29.7561C11.6131 29.7561 11.0184 29.7561 10.4237 29.7561C9.74921 29.7561 9.07552 29.7561 8.40108 29.7561C7.46953 29.7561 6.731 29.0135 6.71982 28.0655C6.71982 28.0375 6.71982 28.0095 6.71982 27.9814C5.72641 27.8329 5.14587 27.2115 5.14289 26.2962C5.12575 26.2947 5.10861 26.2939 5.09222 26.2924C4.97745 26.2841 4.85821 26.2757 4.74046 26.2553C3.97138 26.1189 3.39084 25.4187 3.39009 24.6269C3.3886 23.3372 3.3886 22.0475 3.39009 20.7578C3.39084 19.9318 3.99895 19.2211 4.80455 19.1036C4.90293 19.0892 4.99757 19.0824 5.087 19.0817C6.34869 19.0801 7.60963 19.0801 8.87132 19.0817C9.73655 19.0817 10.4266 19.6879 10.5489 20.5547C10.56 20.6335 10.5571 20.7116 10.5548 20.7873C10.9789 20.8131 11.4454 20.9033 11.815 21.2655C12.1996 21.6421 12.2897 22.1164 12.3143 22.5446C12.3277 22.5468 12.3419 22.5491 12.3553 22.5506C12.4485 22.565 12.5446 22.5794 12.6385 22.6037C13.3867 22.7969 13.8898 23.4531 13.8905 24.2366C13.8913 25.5081 13.892 26.7796 13.8905 28.0504L13.889 28.0519ZM25.3225 8.81642C25.3225 14.6481 25.3225 20.4797 25.3225 26.3106C25.3225 27.0062 24.9968 27.3419 24.3209 27.3419C21.7856 27.3419 19.2495 27.3419 16.7142 27.3419C17.0786 26.3704 17.2784 25.3164 17.2784 24.2154C17.2784 24.123 17.2761 24.0305 17.2739 23.9381C17.4177 23.9381 17.5623 23.9381 17.7061 23.9381C18.268 23.9381 18.634 23.5933 18.628 23.0735C18.6228 22.5711 18.2569 22.2377 17.7061 22.2377C17.49 22.2377 17.2739 22.2377 17.0585 22.2377C16.9244 21.6451 16.7306 21.0753 16.4854 20.535C18.008 20.535 19.5305 20.535 21.0522 20.535C21.6142 20.535 21.9801 20.1902 21.9749 19.6712C21.9696 19.1688 21.6037 18.8354 21.053 18.8346C19.4172 18.8346 17.7814 18.8346 16.1463 18.8346C15.9198 18.8346 15.694 18.8346 15.4674 18.8346C14.9748 18.1898 14.3965 17.6162 13.7489 17.1327C14.5322 17.1327 15.3154 17.1327 16.0986 17.1327C17.762 17.1327 19.4254 17.1335 21.0895 17.1327C21.6104 17.1327 21.9726 16.7826 21.9749 16.2878C21.9771 15.7907 21.6149 15.4331 21.0999 15.4331C17.7821 15.4316 14.4643 15.4323 11.1465 15.4331C11.0549 15.4331 10.9595 15.4361 10.8715 15.4619C10.7426 15.499 10.6301 15.5627 10.5377 15.6453C9.92658 15.5058 9.29164 15.4316 8.63881 15.4316C8.04783 15.4316 7.47102 15.4922 6.91358 15.6066C6.91358 11.314 6.91358 7.02207 6.91358 2.72941C6.91358 2.03683 7.24 1.70418 7.9204 1.70418C11.3872 1.70418 14.8548 1.70418 18.3217 1.70418H18.6287C18.6287 3.12496 18.6287 4.50331 18.6287 5.88241C18.6295 7.21984 19.4455 8.22992 20.7355 8.48073C20.889 8.51029 21.05 8.50877 21.2073 8.50953C22.5643 8.5118 23.9207 8.51104 25.3225 8.51104V8.81717V8.81642Z" fill="white"/>
<path d="M21.0546 12.0286C19.4188 12.0286 17.783 12.0286 16.1479 12.0286C14.5129 12.0286 12.8391 12.0286 11.1854 12.0286C10.6354 12.0286 10.268 12.3627 10.2628 12.8636C10.2568 13.3827 10.6235 13.729 11.1839 13.729C14.4741 13.729 17.7636 13.729 21.0538 13.729C21.6165 13.729 21.9824 13.3849 21.9772 12.8651C21.972 12.3627 21.606 12.0286 21.0561 12.0286H21.0546Z" fill="white"/>
</g>
<defs>
<clipPath id="clip0_2001_800">
<rect width="27" height="33" fill="white"/>
</clipPath>
</defs>
</svg>
