<svg width="27" height="33" viewBox="0 0 27 33" fill="none" xmlns="http://www.w3.org/2000/svg">
<g clip-path="url(#clip0_2001_814)">
<path d="M12.5539 22.1129C12.4228 22.247 12.2603 22.2959 12.071 22.2581L11.9898 22.2418C11.5665 22.1566 11.1425 22.0714 10.7192 21.9862C10.5053 21.9432 10.3801 21.8202 10.3376 21.6105C10.3115 21.4838 10.2877 21.3564 10.2631 21.2289C10.2116 20.9585 10.1587 20.6784 10.0909 20.4094C10.0142 20.1049 10.0857 19.87 10.3167 19.6707C10.4255 19.5766 10.5291 19.4744 10.6349 19.3677C10.506 19.3973 10.3763 19.4395 10.2579 19.4929C9.30097 19.9219 8.85755 21.057 9.26892 22.0232C9.37922 22.2826 9.34866 22.4567 9.16384 22.6227C8.20398 23.4873 7.24336 24.3505 6.2835 25.2145L6.01074 25.4597C5.85275 25.6013 5.69476 25.7435 5.53751 25.8851C5.19247 26.194 4.8355 26.5141 4.48747 26.8312C4.27955 27.0209 4.2095 27.2514 4.2788 27.5166C4.34811 27.7819 4.51877 27.9493 4.78631 28.0131C5.05609 28.0775 5.28562 28.0005 5.48833 27.7774C6.67624 26.4711 7.86489 25.1656 9.05355 23.8593L9.68775 23.1628C9.85766 22.9761 10.0365 22.9368 10.2683 23.0354C10.5917 23.1724 10.9002 23.2243 11.2103 23.1939C12.001 23.1161 12.5442 22.7271 12.8707 22.0054C12.9146 21.9091 12.9482 21.8061 12.9728 21.695C12.8341 21.8321 12.6918 21.9728 12.5547 22.1136L12.5539 22.1129Z" fill="white"/>
<path d="M26.6952 6.83377C24.5049 4.65834 22.3154 2.48218 20.1274 0.30453C19.9195 0.0970642 19.681 0 19.3814 0C15.495 0.00518664 11.6093 0.000740948 7.72291 0.00444569C6.35689 0.00592759 5.24275 1.11439 5.24201 2.47551C5.24052 6.91008 5.24052 11.3454 5.24052 15.78C2.15896 17.0922 0 20.1345 0 23.6785C0 28.422 3.86779 32.2683 8.63955 32.2683C11.657 32.2683 14.3123 30.7301 15.8572 28.3998H24.8768C24.9104 28.3842 24.9417 28.362 24.9767 28.3539C26.2384 28.0567 26.9963 27.1106 26.9963 25.8243C26.9963 19.7515 26.9955 13.6786 27 7.60583C27 7.29908 26.9128 7.04938 26.6959 6.83451L26.6952 6.83377ZM20.304 2.97417C21.53 4.19228 22.7708 5.42522 24.0116 6.65816C23.4862 6.65816 22.9146 6.65816 22.343 6.65816C21.9532 6.65816 21.5635 6.66483 21.1745 6.65594C20.6938 6.64482 20.3189 6.32103 20.31 5.85645C20.2906 4.88063 20.304 3.9048 20.304 2.97417ZM13.4873 22.7701C13.067 23.434 12.4097 23.8859 11.6376 24.0423C11.1421 24.1423 10.651 24.1149 10.1777 23.9593C8.90262 25.3634 7.53213 26.872 6.14598 28.3909C5.81733 28.7518 5.42012 28.9355 4.98118 28.9355C4.83734 28.9355 4.6883 28.9155 4.53627 28.8755C3.94231 28.7199 3.5451 28.3109 3.38711 27.6929C3.38115 27.6692 3.37444 27.6455 3.36699 27.6218L3.35059 27.5648V27.1261L3.37072 27.0483C3.38189 27.0039 3.39382 26.9594 3.40574 26.9157C3.48846 26.623 3.64496 26.3718 3.87003 26.1688C5.35454 24.8329 6.83906 23.4969 8.32581 22.1632C8.33848 22.1521 8.34444 22.1455 8.34816 22.141C8.34816 22.1366 8.34593 22.1299 8.34295 22.1195C8.09553 21.3489 8.19092 20.508 8.60453 19.8122C9.02037 19.1135 9.71866 18.623 10.522 18.4667C10.5802 18.4555 10.639 18.4452 10.6979 18.4348L10.8037 18.4185L11.3545 18.4215C11.3962 18.4296 11.4387 18.4378 11.4811 18.4452C11.5758 18.4629 11.6734 18.4807 11.7703 18.5044C11.9477 18.5474 12.0811 18.6667 12.1258 18.8238C12.1705 18.9809 12.1206 19.152 11.9924 19.281C11.6816 19.5929 11.347 19.9271 11.0035 20.2612C10.9938 20.2709 10.9908 20.276 10.9908 20.2768C10.9908 20.2768 10.9908 20.2835 10.9938 20.3005C11.0601 20.6206 11.1167 20.9014 11.1667 21.1593C11.4439 21.2126 11.7286 21.2689 12.0423 21.3334C12.049 21.3349 12.0535 21.3349 12.0557 21.3356C12.0557 21.3349 12.0595 21.3319 12.0639 21.3275C12.2264 21.1637 12.3896 21.0007 12.5535 20.8384C12.7138 20.6791 12.874 20.5198 13.0335 20.359C13.1781 20.2131 13.3383 20.1619 13.5097 20.2071C13.7661 20.2746 13.8242 20.5035 13.8428 20.5791C14.0328 21.3312 13.9069 22.1092 13.4888 22.7693L13.4873 22.7701ZM25.3225 8.62093C25.3225 14.3233 25.3225 20.0256 25.3225 25.7272C25.3225 26.4074 24.9968 26.7356 24.3209 26.7356C21.7856 26.7356 19.2495 26.7356 16.7142 26.7356C17.0786 25.7857 17.2784 24.7551 17.2784 23.6785C17.2784 23.5881 17.2761 23.4977 17.2739 23.4073C17.4177 23.4073 17.5623 23.4073 17.7061 23.4073C18.268 23.4073 18.634 23.0702 18.628 22.5619C18.6228 22.0706 18.2569 21.7446 17.7061 21.7446C17.49 21.7446 17.2739 21.7446 17.0585 21.7446C16.9244 21.1652 16.7306 20.608 16.4854 20.0797C18.008 20.0797 19.5305 20.0797 21.0522 20.0797C21.6142 20.0797 21.9801 19.7426 21.9749 19.235C21.9696 18.7438 21.6037 18.4177 21.053 18.417C19.4172 18.417 17.7814 18.417 16.1463 18.417C15.9198 18.417 15.694 18.417 15.4674 18.417C14.9748 17.7865 14.3965 17.2256 13.7489 16.7528C14.5322 16.7528 15.3154 16.7528 16.0986 16.7528C17.762 16.7528 19.4254 16.7536 21.0895 16.7528C21.6104 16.7528 21.9726 16.4105 21.9749 15.9267C21.9771 15.4406 21.6149 15.0909 21.0999 15.0909C17.7821 15.0894 14.4643 15.0901 11.1465 15.0909C11.0549 15.0909 10.9595 15.0939 10.8715 15.119C10.7426 15.1554 10.6301 15.2176 10.5377 15.2984C9.92658 15.162 9.29164 15.0894 8.63881 15.0894C8.04783 15.0894 7.47102 15.1487 6.91358 15.2606C6.91358 11.0631 6.91358 6.86637 6.91358 2.6689C6.91358 1.99167 7.24 1.66639 7.9204 1.66639C11.3872 1.66639 14.8548 1.66639 18.3217 1.66639H18.6287C18.6287 3.05567 18.6287 4.40345 18.6287 5.75198C18.6295 7.05975 19.4455 8.04744 20.7355 8.29269C20.889 8.32159 21.05 8.32011 21.2073 8.32085C22.5643 8.32307 23.9207 8.32233 25.3225 8.32233V8.62167V8.62093Z" fill="white"/>
<path d="M21.0546 11.7617C19.4188 11.7617 17.783 11.7617 16.1479 11.7617C14.5129 11.7617 12.8391 11.7617 11.1854 11.7617C10.6354 11.7617 10.268 12.0885 10.2628 12.5782C10.2568 13.0858 10.6235 13.4244 11.1839 13.4244C14.4741 13.4244 17.7636 13.4244 21.0538 13.4244C21.6165 13.4244 21.9824 13.088 21.9772 12.5797C21.972 12.0885 21.606 11.7617 21.0561 11.7617H21.0546Z" fill="white"/>
</g>
<defs>
<clipPath id="clip0_2001_814">
<rect width="27" height="32.2683" fill="white"/>
</clipPath>
</defs>
</svg>
