<svg width="27" height="33" viewBox="0 0 27 33" fill="none" xmlns="http://www.w3.org/2000/svg">
<g clip-path="url(#clip0_2001_808)">
<path d="M12.6039 20.5903C11.3116 20.0597 10.0209 19.5248 8.72788 18.9943C8.67795 18.9735 8.60566 18.9713 8.55648 18.992C7.25753 19.5248 5.96007 20.062 4.66111 20.5954C4.58957 20.6251 4.56498 20.6606 4.56647 20.7384C4.57169 21.0867 4.56871 21.4357 4.56871 21.7839C4.56871 21.8225 4.56871 21.8602 4.56871 21.8988C4.56423 22.576 4.55827 23.254 4.70434 23.9216C5.1962 26.1592 6.48471 27.7708 8.55946 28.7614C8.60268 28.7822 8.67274 28.7822 8.7167 28.7622C11.1715 27.6345 12.6978 25.2612 12.706 22.5641C12.7075 21.9588 12.7045 21.3534 12.7082 20.7488C12.7082 20.6629 12.6836 20.6221 12.6031 20.5888L12.6039 20.5903ZM10.7445 22.8516C10.1796 23.411 9.61621 23.9727 9.05206 24.5336C8.86128 24.7233 8.67199 24.9137 8.47972 25.1019C8.25987 25.3175 7.99308 25.3175 7.77547 25.1019C7.35813 24.6884 6.9408 24.2735 6.52496 23.8586C6.32598 23.66 6.31778 23.3792 6.50111 23.1917C6.68816 23.0006 6.97657 23.0043 7.18077 23.2051C7.46545 23.4851 7.74789 23.7682 8.03108 24.0497C8.06015 24.0786 8.09145 24.1068 8.12648 24.1401C8.16076 24.1075 8.19206 24.0801 8.22112 24.0512C8.84787 23.4281 9.47312 22.8042 10.1014 22.1833C10.3674 21.9203 10.7959 22.0299 10.8891 22.3834C10.9368 22.5656 10.8772 22.7205 10.7438 22.8524L10.7445 22.8516Z" fill="white"/>
<path d="M26.6952 6.83377C24.5049 4.65834 22.3154 2.48218 20.1274 0.30453C19.9195 0.0970642 19.681 0 19.3814 0C15.495 0.00518664 11.6093 0.000740948 7.72291 0.00444569C6.35689 0.00592759 5.24275 1.11439 5.24201 2.47551C5.24052 6.91008 5.24052 11.3454 5.24052 15.78C2.15896 17.0922 0 20.1345 0 23.6785C0 28.422 3.86779 32.2683 8.63955 32.2683C11.657 32.2683 14.3123 30.7301 15.8572 28.3998H24.8768C24.9104 28.3842 24.9417 28.362 24.9767 28.3539C26.2384 28.0567 26.9963 27.1106 26.9963 25.8243C26.9963 19.7515 26.9955 13.6786 27 7.60583C27 7.29908 26.9128 7.04938 26.6959 6.83451L26.6952 6.83377ZM20.304 2.97417C21.53 4.19228 22.7708 5.42522 24.0116 6.65816C23.4862 6.65816 22.9146 6.65816 22.343 6.65816C21.9532 6.65816 21.5635 6.66483 21.1745 6.65594C20.6938 6.64482 20.3189 6.32103 20.31 5.85645C20.2906 4.88063 20.304 3.9048 20.304 2.97417ZM13.6282 22.6856C13.5842 24.8892 12.7481 26.7482 11.1368 28.2605C10.4751 28.8807 9.71493 29.3527 8.87803 29.7061C8.71557 29.775 8.56428 29.7772 8.40033 29.7061C6.32633 28.8088 4.88951 27.3099 4.1003 25.2034C3.80221 24.4083 3.65316 23.5829 3.64645 22.7345C3.64049 21.9491 3.64496 21.1637 3.64496 20.379C3.64496 20.1138 3.73514 19.9797 3.98256 19.8774C5.07135 19.4277 6.16089 18.9779 7.24968 18.5274C7.67447 18.3518 8.09851 18.1732 8.52255 17.9954H8.75358C9.23425 18.1955 9.71493 18.3963 10.1964 18.5956C11.2211 19.0194 12.2465 19.4417 13.2712 19.8648C13.5499 19.9797 13.6319 20.1056 13.6319 20.4102C13.6319 21.1689 13.6446 21.9276 13.6297 22.6856H13.6282ZM25.3232 8.62019C25.3232 14.3225 25.3232 20.0249 25.3232 25.7265C25.3232 26.4067 24.9975 26.7349 24.3216 26.7349C21.7863 26.7349 19.2503 26.7349 16.715 26.7349C17.0794 25.785 17.2791 24.7543 17.2791 23.6777C17.2791 23.5873 17.2769 23.4969 17.2746 23.4066C17.4185 23.4066 17.563 23.4066 17.7069 23.4066C18.2688 23.4066 18.6347 23.0694 18.6287 22.5611C18.6235 22.0699 18.2576 21.7439 17.7069 21.7439C17.4908 21.7439 17.2746 21.7439 17.0593 21.7439C16.9251 21.1644 16.7314 20.6073 16.4862 20.079C18.0087 20.079 19.5312 20.079 21.053 20.079C21.6149 20.079 21.9808 19.7418 21.9756 19.2343C21.9704 18.743 21.6045 18.417 21.0537 18.4163C19.4179 18.4163 17.7821 18.4163 16.1471 18.4163C15.9205 18.4163 15.6947 18.4163 15.4682 18.4163C14.9756 17.7857 14.3973 17.2248 13.7497 16.7521C14.5329 16.7521 15.3161 16.7521 16.0994 16.7521C17.7628 16.7521 19.4261 16.7528 21.0903 16.7521C21.6112 16.7521 21.9734 16.4098 21.9756 15.9259C21.9778 15.4399 21.6157 15.0902 21.1007 15.0902C17.7829 15.0887 14.4651 15.0894 11.1473 15.0902C11.0556 15.0902 10.9602 15.0931 10.8723 15.1183C10.7434 15.1546 10.6308 15.2169 10.5384 15.2976C9.92733 15.1613 9.29238 15.0887 8.63955 15.0887C8.04858 15.0887 7.47176 15.1479 6.91433 15.2598C6.91433 11.0624 6.91433 6.86563 6.91433 2.66815C6.91433 1.99093 7.24074 1.66565 7.92114 1.66565C11.388 1.66565 14.8556 1.66565 18.3224 1.66565H18.6295C18.6295 3.05493 18.6295 4.40271 18.6295 5.75124C18.6302 7.05901 19.4463 8.0467 20.7363 8.29195C20.8898 8.32085 21.0508 8.31937 21.208 8.32011C22.5651 8.32233 23.9214 8.32159 25.3232 8.32159V8.62093V8.62019Z" fill="white"/>
<path d="M21.0546 11.7617C19.4188 11.7617 17.783 11.7617 16.1479 11.7617C14.5129 11.7617 12.8391 11.7617 11.1854 11.7617C10.6354 11.7617 10.268 12.0885 10.2628 12.5782C10.2568 13.0858 10.6235 13.4244 11.1839 13.4244C14.4741 13.4244 17.7636 13.4244 21.0538 13.4244C21.6165 13.4244 21.9824 13.088 21.9772 12.5797C21.972 12.0885 21.606 11.7617 21.0561 11.7617H21.0546Z" fill="white"/>
</g>
<defs>
<clipPath id="clip0_2001_808">
<rect width="27" height="32.2683" fill="white"/>
</clipPath>
</defs>
</svg>
