<svg width="577" height="577" viewBox="0 0 577 577" fill="none" xmlns="http://www.w3.org/2000/svg">
<path d="M577 186C576.2 187.3 574.6 188.7 574.7 190C575.2 202.4 562.8 215.7 549.5 217.5C547.7 217.8 545.9 218.2 544.1 218.5C533.9 220.3 528.2 225.8 527.1 236.3C526.8 238.8 529.2 241.6 530.5 244.2C533.6 250.4 537.1 256.4 540 262.7C544.1 271.9 540.7 280.6 535.3 287.4C528.3 296.1 519.9 304 511.3 311.2C503 318.2 485.8 317.1 476.4 310.3C475.7 309.8 475 309.3 474.5 308.7C466.4 300 457.4 301.7 448.6 307.1C446.6 308.4 445.7 311.9 444.9 314.6C443.4 319.8 442.5 325.3 440.9 330.5C437.5 341.5 423.8 351.1 412 350.6C402.5 350.2 392.9 351.1 383.7 349.4C370.3 346.9 362.5 337.7 359.7 324.4C359.5 323.4 359.5 322.4 359.3 321.4C356.6 306.9 356.6 306.9 342.4 302.5C340.7 302 338.5 302.3 336.9 303C334.2 304.2 331.7 306 329.3 307.7C313.7 319.2 298.4 318.6 284.1 305.5C278.8 300.7 273.9 295.4 269.2 290.1C259.4 279 258.8 262.6 267.5 250.4C267.8 250 268.1 249.6 268.4 249.2C277 241.4 275.6 232.6 270.4 223.8C269.3 221.9 266.9 220.3 264.8 219.7C259.2 218.2 253.2 217.9 247.8 216C235.9 211.9 228.6 203.2 227.3 190.8C226.3 180.9 226.1 170.7 227.3 160.9C229.3 144.9 240.3 136.7 255.6 133.4C256.9 133.1 258.2 132.7 259.5 132.7C267.3 133 270.2 128.3 273.3 121.8C277.1 113.7 273 108.8 269.1 103.4C257.8 87.7999 258.6 72.1999 271.8 58.2999C276 53.7999 280 48.9999 284.7 45.0999C295.3 36.2999 307.2 31.6999 321.5 39.2999C326.2 41.7999 330.6 44.7999 334.9 47.8999C337.9 50.0999 340.6 50.1999 344.2 49.0999C353 46.2999 358.5 41.7999 359.1 31.4999C360 18.4999 366.5 8.4999 379.3 3.6999C381.6 2.7999 384.2 2.8999 386.5 2.1999C387.8 1.7999 389 0.699902 390.2 -0.100098C397.2 -0.100098 404.2 -0.100098 411.2 -0.100098C412.7 0.699902 414.1 1.6999 415.7 2.2999C419.9 3.6999 424.5 4.1999 428.3 6.2999C438 11.5999 442.5 20.9999 443.6 31.2999C444.6 40.5999 448.4 45.9999 457.3 48.7999C461.8 50.1999 465.1 50.2999 468.8 47.1999C471.6 44.8999 474.7 42.8999 477.8 40.9999C492.6 31.7999 508.1 35.0999 519.2 47.0999C523.1 51.3999 527.5 55.1999 531.6 59.2999C538.7 66.4999 543.1 75.4999 541.2 85.3999C539.8 92.5999 535.9 99.7999 531.6 105.8C527.3 111.7 526.2 116.8 529.9 123C530.3 123.7 530.6 124.5 530.9 125.3C532.4 130 535.6 131.9 540.5 132.5C545.6 133.1 550.6 134.4 555.4 136.1C567.4 140.3 574.4 150.1 574.8 162.3C574.8 163.5 576.4 164.7 577.3 165.9C577 172.7 577 179.3 577 186ZM464.4 271.4C467.7 272.9 471.1 274.1 474.1 276C479.6 279.5 484.8 283.4 490 287.2C493.5 289.8 496.7 289.7 499.8 286.5C503.4 282.8 506.9 279 510.7 275.5C514.6 271.8 514.5 268.2 511.5 264C507.7 258.8 504.2 253.3 500.4 248C496.6 242.7 495.7 237.5 499 231.3C503 223.6 506.4 215.6 509.1 207.4C511.9 198.8 517.6 195.3 525.9 194.2C531.7 193.5 537.4 192.3 543.1 191.4C546.9 190.8 548.6 188.8 548.5 184.9C548.4 178.9 548.4 172.9 548.5 166.9C548.6 162.8 546.7 160.9 542.7 160.3C535.5 159.1 528.4 157.5 521.2 156.2C515.4 155.1 511.9 151.8 509.8 146.2C506.2 136.7 502.3 127.3 498.1 118.1C496 113.4 496.6 109.5 499.3 105.5C503.3 99.5999 507.4 93.6999 511.4 87.7999C514.9 82.4999 514.6 79.9999 510.2 75.4999C507.3 72.4999 504.3 69.5999 501.4 66.6999C497.1 62.3999 494.2 61.8999 489.1 65.2999C483.2 69.2999 477.4 73.4999 471.5 77.5999C467.9 80.0999 464.1 80.9999 459.8 79.1999C450.3 75.1999 440.9 70.8999 431.3 67.2999C425.2 64.9999 421.6 61.1999 420.5 54.8999C419.3 47.8999 417.7 40.8999 416.5 33.8999C415.8 30.1999 414 28.3999 410.1 28.3999C404.1 28.4999 398.1 28.4999 392.1 28.3999C388.3 28.2999 386.1 29.8999 385.5 33.6999C384.5 39.5999 383.3 45.4999 382.6 51.3999C381.7 59.6999 377.8 64.9999 369.5 67.7999C361.6 70.3999 353.9 73.5999 346.5 77.3999C339.7 80.9999 334 80.3999 328 75.8999C322.8 71.9999 317.4 68.4999 312.1 64.7999C308.6 62.2999 305.4 62.3999 302.3 65.4999C298.3 69.4999 294.2 73.3999 290.2 77.3999C287.4 80.1999 287.3 83.1999 289.5 86.3999C293.2 91.6999 296.7 97.1999 300.7 102.3C305 107.9 305.9 113.6 303.2 120.1C299.5 129.1 295.8 138.2 292.1 147.3C290 152.5 285.9 155.4 280.5 156.4C273.5 157.8 266.5 159.3 259.5 160.5C255.1 161.2 253.1 163.8 252.9 168C252.8 173.2 252.8 178.3 252.8 183.5C252.8 188.1 254.9 191 259.7 191.8C266.4 192.9 273.1 194.1 279.9 195.2C286.4 196.2 290.2 200.4 292.6 205.9C296.3 214.3 299.5 222.8 303.1 231.2C305.9 237.9 305.3 244 300.7 249.9C296.8 254.9 293.4 260.2 289.7 265.4C287.3 268.8 287.5 271.7 290.6 274.7C294.8 278.6 298.8 282.7 302.8 286.9C305.4 289.6 308.1 289.9 311.2 287.8C316.3 284.3 321.7 281.2 326.4 277.3C333.4 271.5 340.3 271.5 348.2 275.2C355.4 278.6 362.9 281.4 370.3 284.4C376.4 286.8 380.8 290.8 382 297.5C383.3 304.4 384.5 311.2 385.5 318.1C386.2 322.3 388.7 324.3 392.6 324.4C398.3 324.6 403.9 324.6 409.6 324.4C413.1 324.3 415.6 322.5 416.4 318.9C417.7 312.6 419.6 306.3 420.1 299.8C420.9 291.1 425.6 286.5 433.4 283.7C440.3 281.2 446.9 278.1 453.7 275.5C457 273.9 460.4 272.8 464.4 271.4ZM0 371C0.7 372.8 1.8 374.5 2.1 376.3C4.1 388.9 10.3 398.8 22.2 403.5C30.9 406.9 40.4 408.4 49.7 410.2C53.1 410.9 54.9 412.4 56.1 415.5C58.5 421.7 61.3 427.8 63.5 434C64 435.5 63.6 437.9 62.7 439.3C58.7 445.8 54.2 452 50.1 458.5C46.8 463.7 46 469.3 46.6 475.7C47.1 481.9 45.9 488.4 49.8 493.9C52.7 497.9 55.6 502 59 505.6C65 511.8 71.1 518.1 77.7 523.6C83.3 528.3 90.1 529.6 97.8 530.5C113.3 532.3 123.7 523.9 134.7 516C138.6 513.2 141.8 512.2 146.3 514.7C151.2 517.4 156.9 518.7 161.9 521.2C163.9 522.2 165.7 524.7 166.3 526.9C169 536.4 170.2 546.6 173.9 555.7C178.6 567.1 188.4 573.1 200.6 574.9C202.4 575.2 204.1 576.3 205.9 577C214.6 577 223.2 577 231.9 577C233.6 576.2 235.2 575.2 236.9 574.7C238.9 574.1 241.2 574.3 243.2 573.7C257 569.4 265.3 559.9 268.4 546C269.7 540.2 270.8 534.2 271.4 528.3C271.8 524.2 273.7 522.1 277.4 520.7C283.4 518.4 289.3 515.6 295.4 513.3C296.8 512.8 299 513 300.3 513.9C305 516.8 309.4 520 313.9 523.2C328.9 534.3 349.8 534.2 362.4 522.6C369.7 515.8 376.7 508.7 383.6 501.4C395.2 489.1 396.9 470 387.6 456.8C384.2 451.9 381 446.8 377.3 442C374.7 438.6 374 435.5 375.9 431.4C378.6 425.7 380.8 419.7 383.5 414C384.2 412.5 386.1 411 387.8 410.6C393.8 409.3 399.9 408.6 406 407.4C413.6 405.9 419.1 398.6 417.9 391.9C416.6 384.2 409.5 379.2 401.2 380.5C391.5 382.1 382 384.2 372.3 386C366.1 387.1 362.7 390.7 360.5 396.7C356.4 407.7 351.7 418.6 346.8 429.3C344.1 435.1 343.6 440.3 347.4 445.7C352.8 453.5 358.2 461.3 363.5 469.2C368.2 476.3 367.9 479.2 362 485.4C357.6 490 353.1 494.4 348.6 498.8C341.2 506.2 336.6 506.4 328.1 500.3C320.9 495.2 313.7 490.2 306.3 485.3C302.3 482.6 297.8 482.5 293.4 484.3C281.1 489.4 268.9 494.6 256.6 499.7C251.1 502 247.9 505.8 247.1 512C246 520.4 244.4 528.7 242.9 537.1C241.4 545.5 238 548.3 229.4 548.4C222.1 548.4 214.7 548.4 207.4 548.4C200.3 548.4 197.8 546.4 196.3 539.6C194.6 531.6 192.4 523.7 191.8 515.6C190.9 504.9 184.8 500 175.3 497.1C167.1 494.5 159 491.2 151.4 487.2C142.5 482.5 134.6 482 126.5 488.7C120.6 493.6 114.2 497.8 107.8 502C101.5 506.1 96.5 505.4 91.2 500.2C86.2 495.3 81.3 490.3 76.3 485.4C71.2 480.3 70.6 475.2 74.6 469.2C79.6 461.7 84.8 454.4 90 447.1C94 441.5 94.3 436 91.5 429.7C87 419.6 82.5 409.4 78.9 398.9C75.9 390.2 70.4 386.1 61.5 385.1C53.4 384.2 45.5 382.1 37.5 380.6C30.4 379.2 28.4 376.7 28.3 369.3C28.3 361.8 28.3 354.3 28.3 346.8C28.3 338.8 31.6 335.1 39.6 333.8C48 332.5 56.3 330.8 64.7 329.7C71.1 328.9 74.9 325.4 77.2 319.7C81.4 309.2 85.2 298.5 90.3 288.5C94.9 279.5 93.8 272.1 87.7 264.6C83 258.8 78.9 252.5 74.7 246.3C71.7 241.8 70.5 236.7 74.4 232.4C80.6 225.5 87.3 218.9 94.1 212.6C97.5 209.5 101.6 209 105.9 212.2C114.1 218.2 122.6 223.7 131 229.5C135.8 232.8 140.5 233.1 146 230.7C157.3 225.6 168.9 220.8 180.5 216.3C186.2 214.1 189.6 210.6 190.7 204.6C192.4 195.3 194.7 186.1 195.9 176.7C196.4 172.9 195.4 168.3 193.5 164.9C190.7 159.8 185.3 157.9 179.6 159.6C174 161.3 170.6 165.7 169.2 171.3C167.8 177.1 167.3 183.1 166 189C165.6 190.7 164.3 192.8 162.8 193.4C156.6 196.3 150.4 199.1 143.9 201.2C141.5 202 138 201.4 135.7 200.1C129.8 196.7 124.5 192.3 118.7 188.7C107.1 181.7 94.2 180.3 83.3 188.1C71.7 196.4 61 206.7 51.8 217.6C47.1 223.2 45.2 232.2 44.6 239.8C44.2 245.4 47.2 251.8 50 257.1C53.3 263.6 58.1 269.3 62 275.5C62.9 277 63.5 279.4 63 280.9C60.8 287.3 58.4 293.8 55.4 299.9C54.3 302.2 51.4 304.2 48.9 305C44.5 306.4 39.8 306.8 35.2 307.3C17 309.6 3.3 323.2 2 340.2C1.9 341.5 0.7 342.7 0 344C0 353 0 362 0 371ZM281.8 431.3C304.2 411.8 315.8 387.4 315.7 357.7C315.7 350.4 310.3 344.7 303.5 344.5C296 344.3 289.8 349.7 289.6 357.2C289.3 366.6 287.5 375.6 283.9 384.4C275.9 403.7 262 416.7 242.5 423.5C235.5 425.9 228.1 427.2 220.8 428.8C219.3 429.1 217.6 428.4 216 428C214.4 427.6 212.9 426.8 211.3 426.7C183 424 159 403.4 152.3 376.1C150.9 370.5 149.6 364.9 148.4 359.3C148.1 357.9 148.4 356.3 148.7 354.9C149.3 352 150 349.2 150.8 346.3C152.4 340.7 153.3 334.8 155.7 329.6C168.2 303.1 189.5 289.4 218.6 287.8C227 287.3 232.8 281.9 232.7 274.2C232.6 266.6 227 261.5 218.5 261.5C198 261.4 179.5 267.4 163 279.6C137.4 298.5 123.6 324.2 122.8 355.8C122 385.6 133.5 410.8 156.2 430.7C174.4 446.7 195.8 453.9 219.8 455C242.8 453.5 263.9 446.8 281.8 431.3ZM469.8 176.4C469.9 213.5 438.2 245.3 400 244.7C363.3 244.1 331.7 213.5 332.4 174.6C333 137.5 364.4 106.8 401.7 107.3C439.9 107.8 469.6 138.5 469.8 176.4ZM401 134.5C378.5 133.3 358.9 153.1 359.1 176.1C359.3 199.9 378.4 217.9 401.2 217.9C424.4 217.9 441.9 199.3 442.6 176.1C443.4 154 423.1 133 401 134.5Z" fill="black"/>
</svg>
