<svg width="89" height="67" viewBox="0 0 89 67" fill="none" xmlns="http://www.w3.org/2000/svg">
<g clip-path="url(#clip0_0_372)">
<path d="M89 51.3638H0V67.002H89V51.3638Z" fill="#25BFFF"/>
<path d="M89.0019 0H0.00195312V49.1292H89.0019V0Z" fill="#237AE2"/>
<path fill-rule="evenodd" clip-rule="evenodd" d="M27.6126 17.3066H30.4041C30.586 17.3072 30.7602 17.3799 30.8888 17.5091C31.0174 17.6382 31.0899 17.8132 31.0904 17.9958V23.5793H43.0011C43.1338 23.5793 43.2611 23.6321 43.3552 23.7261C43.4492 23.8201 43.5023 23.9477 43.5028 24.081V33.3499C43.5018 33.533 43.4286 33.7083 43.2992 33.8374C43.1699 33.9665 42.9949 34.039 42.8125 34.039H40.025C39.8431 34.0385 39.6688 33.9657 39.5402 33.8366C39.4116 33.7075 39.3391 33.5325 39.3386 33.3499V26.9241H31.0904V33.3438C31.0899 33.5264 31.0174 33.7014 30.8888 33.8305C30.7602 33.9597 30.586 34.0324 30.4041 34.033H27.6126C27.4307 34.0324 27.2564 33.9597 27.1278 33.8305C26.9992 33.7014 26.9267 33.5264 26.9262 33.3438V17.9958C26.9267 17.8132 26.9992 17.6382 27.1278 17.5091C27.2564 17.3799 27.4307 17.3072 27.6126 17.3066ZM21.305 22.8801C21.305 23.063 21.3773 23.2385 21.5059 23.3681C21.6346 23.4976 21.8091 23.5707 21.9914 23.5712H24.7829C24.873 23.5709 24.9622 23.5529 25.0454 23.518C25.1286 23.4831 25.2041 23.4321 25.2676 23.3679C25.3312 23.3038 25.3815 23.2276 25.4158 23.1439C25.45 23.0602 25.4675 22.9706 25.4672 22.8801V21.6147C25.4672 19.241 23.4764 17.2986 21.0521 17.2986H13.2334C10.8011 17.2986 8.81836 19.241 8.81836 21.6147V29.7108C8.81836 32.0845 10.8112 34.0249 13.2334 34.0249H21.0461C23.4764 34.0249 25.4612 32.0845 25.4612 29.7108V27.6959C25.4607 27.5134 25.3885 27.3385 25.2604 27.2092C25.1323 27.0798 24.9586 27.0063 24.7769 27.0047H21.9914C21.8093 27.0058 21.635 27.079 21.5065 27.2085C21.378 27.3379 21.3055 27.5131 21.305 27.6959V29.2796C21.305 29.6537 21.157 30.0125 20.8936 30.277C20.6301 30.5415 20.2728 30.6901 19.9002 30.6901H14.3733C14.0008 30.6901 13.6434 30.5415 13.38 30.277C13.1165 30.0125 12.9685 29.6537 12.9685 29.2796V22.0559C12.9685 21.6819 13.1165 21.3231 13.38 21.0586C13.6434 20.7941 14.0008 20.6455 14.3733 20.6455H19.9042C20.2768 20.6455 20.6341 20.7941 20.8976 21.0586C21.161 21.3231 21.309 21.6819 21.309 22.0559L21.305 22.8801ZM46.2723 17.2986H47.93C48.3914 17.3001 48.8468 17.4045 49.2633 17.6042C49.6797 17.8038 50.0469 18.0938 50.3382 18.4532L57.9883 27.7926V17.9958C57.9888 17.8132 58.0613 17.6382 58.1899 17.5091C58.3185 17.3799 58.4928 17.3072 58.6747 17.3066H61.4802C61.6619 17.3072 61.836 17.38 61.9643 17.5092C62.0925 17.6384 62.1646 17.8133 62.1646 17.9958V33.3438C62.1646 33.5263 62.0925 33.7012 61.9643 33.8304C61.836 33.9596 61.6619 34.0324 61.4802 34.033H59.8146C59.3533 34.0311 58.8982 33.9268 58.4819 33.7275C58.0655 33.5283 57.6982 33.239 57.4063 32.8804L49.7582 23.539V33.3438C49.7577 33.5268 49.6849 33.7021 49.5559 33.8312C49.4268 33.9604 49.2521 34.033 49.0699 34.033H46.2803C46.0979 34.033 45.9229 33.9605 45.7936 33.8314C45.6642 33.7023 45.591 33.527 45.59 33.3438V17.9958C45.591 17.8126 45.6642 17.6374 45.7936 17.5082C45.9229 17.3791 46.0979 17.3066 46.2803 17.3066L46.2723 17.2986ZM80.1962 17.9958V19.9624C80.1962 20.1453 80.1239 20.3208 79.9953 20.4504C79.8666 20.5799 79.692 20.653 79.5098 20.6535H73.991V33.3479C73.9904 33.5308 73.9177 33.7061 73.7887 33.8353C73.6596 33.9645 73.4848 34.037 73.3026 34.037H70.5111C70.329 34.0365 70.1546 33.9638 70.0256 33.8347C69.8967 33.7056 69.8238 33.5307 69.8227 33.3479V20.6636H64.3059C64.1235 20.6631 63.9487 20.5901 63.8197 20.4606C63.6908 20.3311 63.6181 20.1556 63.6175 19.9725V18.0058C63.6181 17.8229 63.6908 17.6476 63.8199 17.5184C63.9489 17.3893 64.1237 17.3167 64.3059 17.3167H79.5078C79.6897 17.3172 79.864 17.39 79.9925 17.5191C80.1211 17.6483 80.1936 17.8232 80.1942 18.0058" fill="white"/>
<path fill-rule="evenodd" clip-rule="evenodd" d="M40.0242 17.3066H42.8158C42.9062 17.3066 42.9957 17.3245 43.0792 17.3593C43.1627 17.394 43.2386 17.4449 43.3025 17.5091C43.3664 17.5732 43.4171 17.6494 43.4517 17.7333C43.4863 17.8171 43.5041 17.907 43.5041 17.9978V20.7986C43.5036 20.9815 43.4308 21.1568 43.3018 21.286C43.1728 21.4152 42.998 21.4877 42.8158 21.4877H40.0242C39.8424 21.4872 39.6681 21.4144 39.5395 21.2853C39.4109 21.1562 39.3384 20.9812 39.3379 20.7986V17.9978C39.3379 17.8148 39.4101 17.6393 39.5388 17.5098C39.6674 17.3802 39.842 17.3072 40.0242 17.3066Z" fill="#D41518"/>
<path d="M35.0956 57.1084H35.0394H34.1343L33.1028 59.6231L31.9589 57.1084H31.4271L30.3354 59.6332L29.2557 57.1084H28.3727H28.3145L28.3727 57.2474L30.1026 61.3116H30.4979L31.7 58.5229L32.8981 61.3116H33.2915L35.0394 57.2374L35.0956 57.1084Z" fill="white"/>
<path d="M26.1408 57.0842H26.1308C24.9447 57.0842 23.835 57.9426 23.835 59.1979C23.835 60.4533 24.9427 61.3076 26.1308 61.3117H26.1408C27.1443 61.3117 28.1276 60.6628 28.3725 59.6815C28.4121 59.5234 28.4323 59.361 28.4327 59.1979C28.4323 59.0375 28.4121 58.8778 28.3725 58.7224C28.1256 57.7451 27.1342 57.0842 26.1408 57.0842ZM26.1408 60.5641C25.7938 60.5451 25.4672 60.3934 25.2282 60.14C24.9892 59.8866 24.856 59.5509 24.856 59.202C24.856 58.853 24.9892 58.5173 25.2282 58.2639C25.4672 58.0106 25.7938 57.8588 26.1408 57.8398C26.4879 57.8588 26.8145 58.0106 27.0535 58.2639C27.2925 58.5173 27.4257 58.853 27.4257 59.202C27.4257 59.5509 27.2925 59.8866 27.0535 60.14C26.8145 60.3934 26.4879 60.5451 26.1408 60.5641Z" fill="white"/>
<path d="M17.3034 57.1106C17.0411 57.1156 16.7828 57.176 16.5453 57.2878C16.3077 57.3996 16.0963 57.5603 15.9246 57.7594C15.4169 56.8728 14.0864 56.9534 13.5505 57.5478V57.1731H12.6113V61.2312H13.5505V58.1564C13.801 57.9331 14.1268 57.8141 14.4616 57.8239C14.5639 57.8253 14.6648 57.8476 14.7582 57.8894C14.8517 57.9312 14.9356 57.9916 15.0051 58.067C15.0745 58.1424 15.128 58.2311 15.1622 58.3279C15.1964 58.4247 15.2107 58.5274 15.2042 58.6299V61.2252H16.1434V58.2027C16.619 57.6143 17.795 57.6164 17.795 58.5674V61.2252H18.7342V58.2813C18.7342 57.4068 17.9516 57.1106 17.3054 57.1106" fill="white"/>
<path d="M8.70972 58.5552H11.6979V57.586H8.70972V56.0426H11.8565V55.0854H7.77051V61.2291H12.0692V60.2962H8.70972V58.5552Z" fill="white"/>
<path d="M21.2991 57.0782C20.9169 57.0741 20.5423 57.185 20.2234 57.3966V57.1729H19.2822V63.2743H20.2234V61.0114C20.5425 61.2215 20.9177 61.329 21.2991 61.3197C21.5833 61.3259 21.8659 61.2757 22.1308 61.172C22.3956 61.0682 22.6374 60.913 22.8424 60.7152C23.1493 60.4169 23.359 60.0323 23.4438 59.6119C23.5287 59.1916 23.4846 58.7553 23.3175 58.3605C23.1504 57.9658 22.8681 57.6312 22.5077 57.4009C22.1474 57.1705 21.726 57.0552 21.2991 57.0701V57.0782ZM21.2991 60.5943C21.2167 60.6067 21.1336 60.6127 21.0503 60.6125C20.752 60.6136 20.4616 60.5167 20.2234 60.3364V58.0615C20.462 57.8824 20.7524 57.7869 21.0503 57.7895C21.1335 57.7896 21.2166 57.795 21.2991 57.8056C21.9875 57.9124 22.3788 58.4625 22.3788 59.198C22.3788 59.9334 21.9915 60.4956 21.2991 60.6084" fill="white"/>
<path d="M37.2812 57.0943H37.215C36.2116 57.1205 35.2724 57.6988 35.0396 58.6821C35.0029 58.8434 34.9841 59.0083 34.9834 59.1738C34.9839 59.3492 35.0027 59.5241 35.0396 59.6956C35.2684 60.7031 36.1715 61.2532 37.215 61.3076C37.2812 61.3076 37.3475 61.3076 37.4157 61.3076C38.0645 61.3024 38.6995 61.1191 39.252 60.7777V59.9717C38.678 60.3021 38.1322 60.556 37.4639 60.556C37.3807 60.5564 37.2976 60.5517 37.215 60.5419C36.5688 60.4633 36.0531 60.0745 36.0109 59.3329H39.4446V59.2141C39.4446 57.8943 38.5516 57.0842 37.2913 57.0842L37.2812 57.0943ZM37.2251 58.7546H36.0209C36.1534 58.1099 36.623 57.7935 37.2251 57.7774H37.2812C37.8612 57.7774 38.373 58.13 38.4372 58.7506L37.2251 58.7546Z" fill="white"/>
<path d="M76.4431 55.0874H75.5039V61.2331H76.4431V55.0874Z" fill="white"/>
<path d="M40.9333 57.1086H39.9941V61.2312H40.9333V58.8757C40.9333 58.5171 40.9695 58.3881 41.3588 58.2108L42.2418 57.8078V56.9595L40.9333 57.5378V57.1086Z" fill="white"/>
<path d="M73.3542 57.1086H72.415V61.2312H73.3542V58.8757C73.3542 58.5171 73.3904 58.3881 73.7817 58.2108L74.6627 57.8078V56.9595L73.3542 57.5378V57.1086Z" fill="white"/>
<path d="M81.1109 55.1318H80.2921V57.3926C79.9717 57.1843 79.5962 57.0776 79.2145 57.0864C78.9316 57.0776 78.6499 57.126 78.386 57.2286C78.1221 57.3313 77.8814 57.4861 77.6783 57.6839C77.4751 57.8817 77.3136 58.1184 77.2033 58.3801C77.093 58.6417 77.0361 58.923 77.0361 59.2071C77.0361 59.4913 77.093 59.7725 77.2033 60.0342C77.3136 60.2958 77.4751 60.5326 77.6783 60.7304C77.8814 60.9282 78.1221 61.083 78.386 61.1856C78.6499 61.2883 78.9316 61.3366 79.2145 61.3279C79.5971 61.331 79.9721 61.2202 80.2921 61.0095V61.2312H81.2313V55.1318H81.1109ZM80.2921 60.3446C80.0528 60.5237 79.7619 60.6199 79.4633 60.6186C79.3801 60.6179 79.2969 60.6118 79.2145 60.6005C78.5241 60.4937 78.1368 59.9416 78.1368 59.2061C78.1368 58.4707 78.5221 57.9085 79.2145 57.7956C79.2967 57.7816 79.3799 57.7749 79.4633 57.7755C79.7623 57.7753 80.0533 57.8729 80.2921 58.0536V60.3446Z" fill="white"/>
<path d="M67.7228 55.0854H67.4318H66.585L65.3246 58.8434L63.681 55.0854H63.1251L61.5538 58.8394L60.2453 55.0854H59.0713L61.339 61.2755H61.5437L63.392 56.7841L65.2203 61.2755H65.417L67.4318 55.8733L67.7228 55.0854Z" fill="white"/>
<path d="M69.4456 57.0844H69.4356C69.0386 57.0799 68.6469 57.1755 68.2962 57.3624C67.9456 57.5493 67.6473 57.8216 67.4287 58.1543C67.2371 58.4685 67.1357 58.8297 67.1357 59.1981C67.1357 59.5665 67.2371 59.9277 67.4287 60.2419C67.6468 60.5751 67.945 60.8478 68.2957 61.0348C68.6465 61.2218 69.0385 61.3171 69.4356 61.3118H69.4456C70.6056 61.3118 71.7354 60.4474 71.7354 59.1981C71.7354 57.9488 70.5935 57.0844 69.4456 57.0844ZM69.4356 60.5602C69.1647 60.5719 68.8965 60.5019 68.6656 60.3593C68.4346 60.2166 68.2514 60.0079 68.1396 59.7599C68.0278 59.5119 67.9925 59.2359 68.0381 58.9676C68.0838 58.6992 68.2084 58.4507 68.3959 58.2541C68.5834 58.0574 68.8252 57.9216 69.0902 57.864C69.3552 57.8065 69.6313 57.8299 69.883 57.9312C70.1346 58.0325 70.3503 58.2071 70.5024 58.4325C70.6544 58.6579 70.7358 58.9238 70.736 59.1961C70.743 59.5499 70.6101 59.8921 70.3664 60.1478C70.1227 60.4035 69.788 60.5518 69.4356 60.5602Z" fill="white"/>
<path d="M46.6775 59.7381V57.8762H47.9418V57.175H46.6775V56.23H45.7784V57.175H44.791V57.8762H45.7443V59.8005C45.7443 60.808 46.0353 61.3118 47.1029 61.3118C47.4062 61.3198 47.7065 61.2505 47.9759 61.1103V60.3466C47.7646 60.4771 47.5216 60.5468 47.2735 60.5481C46.7336 60.5481 46.6815 60.2277 46.6815 59.7421" fill="white"/>
<path d="M50.6914 57.1105C50.4566 57.1126 50.2248 57.1633 50.0104 57.2593C49.796 57.3554 49.6036 57.4947 49.4451 57.6687V55.0854H48.5039V61.2311H49.4391V58.3074C49.554 58.1449 49.7064 58.0128 49.8833 57.9223C50.0601 57.8317 50.2561 57.7855 50.4546 57.7875C51.0566 57.7875 51.2934 58.1905 51.2934 58.7507V61.2311H52.2487V58.6822C52.2487 57.5498 51.5884 57.1105 50.7014 57.1105" fill="white"/>
<path d="M54.9177 57.0945H54.8575C53.6916 57.1227 52.6279 57.8904 52.6279 59.1739C52.6279 60.5179 53.6474 61.2413 54.8575 61.3138C54.9238 61.3138 54.99 61.3138 55.0582 61.3138C55.7076 61.3083 56.3432 61.1251 56.8965 60.7839V59.9779C56.3205 60.3084 55.7747 60.5623 55.1084 60.5623C55.0248 60.5668 54.941 60.5661 54.8575 60.5602C54.2113 60.4817 53.6976 60.0928 53.6534 59.3513H57.0651V59.2324C57.0651 57.9126 56.172 57.1025 54.9117 57.1025L54.9177 57.0945ZM54.8455 58.773H53.6414C53.7738 58.1282 54.2434 57.8118 54.8455 57.7957H54.9017C55.4837 57.7957 55.9954 58.1483 56.0596 58.7689L54.8455 58.773Z" fill="white"/>
</g>
<defs>
<clipPath id="clip0_0_372">
<rect width="89" height="67" fill="white"/>
</clipPath>
</defs>
</svg>
